<?xml version="1.0" encoding="utf-8"?>
<!-- Generator: Adobe Illustrator 19.0.0, SVG Export Plug-In . SVG Version: 6.00 Build 0)  -->
<svg version="1.1" id="Warstwa_1" xmlns="http://www.w3.org/2000/svg" xmlns:xlink="http://www.w3.org/1999/xlink" x="0px" y="0px"
	 viewBox="0 0 353.8 384.1" style="enable-background:new 0 0 353.8 384.1;" xml:space="preserve">
<style type="text/css">
	.st0{fill:#FEB73B;}
	.st1{fill:#FEE139;}
	.st2{fill:#6FD45A;}
	.st3{fill:#58B641;}
	.st4{fill:#020201;}
	.st5{fill:#030201;}
	.st6{fill:#020100;}
	.st7{fill:#010100;}
	.st8{fill:#030301;}
</style>
<path d="M333.1,0.1c3.1,1.9,3.9,4.7,3.9,8.2c-0.1,18.2-0.1,36.5-0.1,54.7c0,1.9,0.2,3.6,1.2,5.3c9.1,16,14,33.4,15.1,51.6
	c5,77-22.3,141.3-77.4,194.5c-31.1,30-67.4,50.6-109.2,61.6c-14.3,3.8-28.8,6.3-43.5,7.2c-0.6,0-1.3-0.1-1.5,0.7c-10,0-20,0-30,0
	c-4.6-1.7-9.4-1.4-14.2-2.2c-21.2-3.3-41.2-9.6-58.6-22.7c-5.3-4-9.9-8.7-13.6-14.3c-7.9-12.2-6.8-24.5,3-35.3
	c5.8-6.4,12.9-11,20.3-15.1c4.7-2.6,9.5-5,14.3-7.4c4.2-2.1,5.8-1.7,9.1,1.8c2.5,1.8,1.4,4,0.3,5.9c-1.2,2.2-3.4,3.3-5.5,4.3
	c-8.2,4-16.2,8.3-23.5,13.8c-2,1.5-3.8,3.2-5.5,5c-6.6,7.1-6.7,14.7-0.3,22.4c6,7.2,13.1,12.9,21.7,16.8
	c15.5,7.8,32.1,11.8,49.3,13.2c44.3,3.8,86-5.6,125.2-26c19.3-10,36.4-23.1,52.3-37.9c17-15.8,31.5-33.4,43.3-53.3
	c17.2-29,27.6-60.3,31.2-93.9c2.4-22.4,1-44.4-5.4-66c-1.7-5.5-3.9-10.8-6.5-16c-1.2-2.4-3-3.9-5.6-4.5c-5-1.1-9.9-2.5-14.9-3.7
	c-5.5-1.6-11.2-2.7-16.7-4.3c-2.4-0.7-3.9,0-5.5,2c-6.1,7.7-11,16.1-15.7,24.6c-14.2,25.4-28.4,50.9-45.9,74.3
	c-14.7,19.8-31.2,38-49.5,54.6c-29.3,26.6-62.6,47.1-98.1,64.3c-4.8,2.4-8.1,1.4-9.9-2.6c-0.9-4.9-0.1-6.5,4.6-8.8
	c31.4-15.2,61-33.3,87.8-55.9c35-29.7,62.3-65.5,84.9-105.2c8.4-14.7,16.3-29.7,25.5-44c1.7-2.6,3.2-5.5,5.4-7.6
	c5.3-4.7,5.9-10.8,6.4-17.2c1-12.1,2.4-24.1,3.4-36.2c0.3-3.2,1.5-5.4,4.1-7C303.6,0.1,318.3,0.1,333.1,0.1z"/>
<path class="st0" d="M66.8,281.9c2.4,3,5.2,3.9,8.9,2.1c51.8-24.8,97.8-57.4,134.6-102.1c20.3-24.5,36.9-51.4,52.4-79.2
	c6.8-12.2,13.4-24.5,21.7-35.8c2.3-3.2,4.4-4.3,8.3-2.9c4.9,1.7,10,2.8,15.1,4.1c-2.2,2-3.1,4.7-4.1,7.4
	c-4.8,13.2-10,26.2-14.5,39.5c-0.6,1.8-0.5,3.8-1.4,5.5c-1.4-1.1-1.5-0.1-1.9,1.1c-1,3.2-2.1,6.3-4.1,9.1c-4.2,1.9-5.2,5.2-4.3,9.4
	c-6.5,14.4-14.5,27.9-23.6,40.8c-8.7,12.5-18.3,24.3-29.2,35.1c-16.4,16.2-34.8,29.9-54.2,42.3c-21.6,13.7-44.4,25.4-67,37.3
	c-12.6,6.6-25.1,13.5-36.8,21.6c-0.8,0.6-1.6,1.3-2.7,1.1c-1-0.7-1.2-1.8-1.8-2.8c-1.6-2.5-4.7-3.3-7-1.7c-2.4,1.7-2.6,4.7-0.5,7.2
	c0.7,0.8,1.8,1.3,2.1,2.5c-0.5,2.8-3,4.1-4.8,6c-5.9,6.3-10.8,13-11.8,21.9c-0.3,2.2-0.2,4.5-1.7,6.4c-9-4.2-16.7-10-22.5-18
	c-6-8.3-5.5-15.4,1.5-22.8c7.1-7.5,16.2-11.9,25.1-16.7c1.9-1,3.8-1.9,5.7-2.8c4-2.1,4.8-4,3.8-8.5
	C56.9,286.6,61.9,284.2,66.8,281.9z"/>
<path class="st1" d="M288.2,115c2.9-9.6,6.9-18.8,10.3-28.3c1.8-5,3.7-10,5.6-15c0.7-1.7,1.1-3.7,3.7-3.6c6.1,1.5,12.1,3,18.2,4.4
	c1.8,0.4,2.3,1.8,3,3.1c7.1,13.3,11.2,27.6,12.4,42.5c6,74-20,135.7-72.5,187c-27.6,27-59.9,46.3-97,57.4
	c-27.9,8.3-56.4,11.8-85.5,8.7c-16.7-1.8-32.9-5.5-47.9-13.5c0.2-10.8,4.2-20.1,11.8-27.8c2.1-2.1,4.1-4.3,6.2-6.5
	c3-1,5.3-3.1,7.5-5.3c9.8-7.1,20.3-13.1,30.9-18.8c29.9-16.1,60.5-31.1,88.5-50.6c10.9-7.6,21.4-15.7,31.4-24.6
	c20.5-18.2,36.9-39.6,50.8-63.1c4-6.8,7.8-13.8,11.7-20.8c1.3-0.3,2.4,0.4,3.6,0.6c2.5,0.3,4.4-0.6,5.3-3c0.9-2.3-0.1-4.1-2-5.5
	c-0.9-0.7-2.1-0.8-2.7-1.9c1.4-3.4,2.6-6.9,4.1-10.2c1.2-2.7,0.9,0.9,1.7,0.5c1.4,0.2,1.9,1.5,3,2.1c2.1,1.1,4.1,0.9,5.8-0.7
	c1.5-1.4,1.9-3.2,1-5.1c-1-2-2.6-2.9-4.9-2.7C290.8,114.5,289.6,115.4,288.2,115z"/>
<path class="st2" d="M308.3,12c4.9-0.1,9.7-0.1,14.6-0.2c2.1-0.1,2.5,0.9,2.5,2.7c0,14.5,0,28.9,0,43.4c0,1.7-0.4,2.6-2.4,2
	c-4.2-1.2-8.4-2.2-12.5-3.4c-0.6-1-1-2-1-3.2c-0.5-13-1.5-25.9-1.8-38.9C307.6,13.6,307.8,12.8,308.3,12z"/>
<path class="st3" d="M308.3,12c1.2,14.8,2,29.7,2.1,44.5c-5.3-1.3-10.6-2.7-15.9-3.9c-2-0.4-2.3-1.5-2.1-3.2
	c1.1-11.8,2.2-23.5,3.2-35.3c0.2-1.9,1.1-2.5,2.9-2.4C301.9,12,305.1,12,308.3,12z"/>
<path class="st4" d="M274.3,123.2c-0.1,3.2-3,5.8-6.2,5.7c-2.9-0.2-5.4-2.7-5.4-5.7c-0.1-3.2,2.8-6.1,6-5.9
	C271.7,117.5,274.3,120.2,274.3,123.2z"/>
<path class="st5" d="M63.8,318.1c-1.1,3.8-3.6,5.5-7.5,5.3c-4-2.3-5.2-4.9-3.9-8c1.3-2.9,3.7-4,6.7-3.3
	C62.4,312.7,63.4,315.2,63.8,318.1z"/>
<path class="st6" d="M288.2,115c2.7-2.1,5.5-2.8,8.4-0.4c1.8,1.5,2.4,3.5,1.8,5.7c-0.6,2.3-2.2,3.9-4.6,4.3
	c-3.1,0.5-5.2-1.1-6.6-3.7C286.9,118.8,287.2,116.8,288.2,115z"/>
<path class="st6" d="M73.2,309.1c-3.1,0.1-5.7-2.4-5.8-5.6c-0.1-3.2,2.2-5.8,5.4-5.9c3.2-0.2,5.9,2.2,6,5.3
	C79.1,306.1,76.5,309,73.2,309.1z"/>
<path class="st7" d="M281.3,130.5c3.1,0.2,5.2,1.6,5.9,4.7c0.5,2.4-0.2,4.5-2.3,5.9c-2.8,1.9-5.4,1.1-7.9-0.8
	C274.7,134.9,275.9,132.3,281.3,130.5z"/>
<path d="M119.7,348.9c-3-0.5-5.2-1.7-5.7-4.8c-0.5-3.1,0.6-5.5,3.7-6.5c4.6-1.6,9.3-2.9,13.9-4.5c44-14.8,83.1-37.5,115.4-71.2
	c18.6-19.5,33.6-41.4,45.4-65.6c0.6-1.2,1.1-2.5,1.8-3.7c1.7-2.8,5.1-3.8,7.8-2.4c2.6,1.3,3.9,4.5,2.6,7.4
	c-2.1,4.8-4.5,9.5-6.9,14.1c-29.6,54.8-73.6,94.1-130,119.9c-14.3,6.5-29.1,11.9-44.1,16.4C122.2,348.3,120.9,348.6,119.7,348.9z"/>
<path d="M309.2,177.6c-3.8,0.1-7-3.6-5.8-7.4c3.8-11.2,7.1-22.6,9.8-34.1c0.9-3.5,3.9-5,7.2-4.1c3,0.8,4.7,3.7,3.9,7.1
	c-2.5,11.6-5.8,22.9-9.8,34.1C313.7,175.9,311.9,177.3,309.2,177.6z"/>
<path class="st8" d="M83.9,321.5c0.1,3-2.4,5.7-5.5,5.9c-3.3,0.2-6-2.3-6.1-5.6c-0.1-3.1,2.4-5.8,5.5-5.9
	C80.9,315.7,83.8,318.3,83.9,321.5z"/>
</svg>
