<?xml version="1.0" encoding="utf-8"?>
<!-- Generator: Adobe Illustrator 19.0.0, SVG Export Plug-In . SVG Version: 6.00 Build 0)  -->
<svg version="1.1" id="Warstwa_1" xmlns="http://www.w3.org/2000/svg" xmlns:xlink="http://www.w3.org/1999/xlink" x="0px" y="0px"
	 viewBox="0 0 426.3 512" style="enable-background:new 0 0 426.3 512;" xml:space="preserve">
<style type="text/css">
	.st0{fill:#FEA000;}
	.st1{fill:#FEA002;}
	.st2{fill:#FEC007;}
</style>
<path class="st0" d="M297.7,428.3c-0.5,44.3-27.9,67.7-64.9,83.7c-12,0-24,0-36,0c-40-13.9-67.2-38.3-68.4-83.9
	c6.1-6.5,14.3-6.4,22.2-6.5c41.7-0.3,83.3-0.4,125,0C283.5,421.7,291.7,421.6,297.7,428.3z"/>
<path class="st1" d="M220.8,0c17.2,10.5,12.6,27.8,13.5,43.4c-14.1,10-28.2,9.7-42.4,0.2c1.1-15.5-3.7-32.7,12.9-43.7
	C210.1,0,215.5,0,220.8,0z"/>
<path class="st2" d="M191.9,43.7c14.1-0.1,28.3-0.2,42.4-0.2C299.5,57.3,342.6,95,358.9,160.6c5.5,22.2,3.8,45.1,2.9,67.7
	c-2,52.7,12,98.6,52.7,134.4c12.6,11.1,14.2,25.7,8.9,40.3c-6.2,16.9-20.5,23.7-37.9,24.1c-29.3,0.6-58.6,0.9-87.8,1.3
	c-56.4-0.1-112.8-0.1-169.3-0.2c-27.9-0.3-55.9-1-83.8-1c-18.9,0-34.6-5.8-41.8-24.3c-6.8-17.5-0.6-32.2,13.1-44.6
	c34.7-31.6,48.9-71.6,48.5-117.9c-0.2-25.3-3.2-50.9,2.3-75.7C81.5,96.9,124.8,57.7,191.9,43.7z"/>
</svg>
