<?xml version="1.0" encoding="utf-8"?>
<!-- Generator: Adobe Illustrator 19.0.0, SVG Export Plug-In . SVG Version: 6.00 Build 0)  -->
<svg version="1.1" id="Warstwa_1" xmlns="http://www.w3.org/2000/svg" xmlns:xlink="http://www.w3.org/1999/xlink" x="0px" y="0px"
	 viewBox="0 0 345.9 384" style="enable-background:new 0 0 345.9 384;" xml:space="preserve">
<style type="text/css">
	.st0{fill:#020202;}
	.st1{fill:#EE314C;}
	.st2{fill:#008900;}
	.st3{fill:#5EA617;}
	.st4{fill:#B9193A;}
	.st5{fill:#FDFDFD;}
</style>
<path class="st0" d="M239,384c-3.3-1.7-7.1-1.5-10.7-2.4c-31.9-8.3-54.6-27.3-67.5-57.8c-0.2-0.6-0.5-1.1-0.8-1.7
	c0-0.1-0.2-0.1-0.5-0.4c-7.4,6.4-15.6,11.8-24.7,15.8C77.5,362.6,12,327.3,1.4,265.6c-9.2-53.7,29.2-105,83.2-111.2
	c4.1-0.5,8.2-0.7,12.3-0.6c1.7,0.1,2.6-0.5,3.5-2c3-5,6.2-10,9.4-15.2c-4.9-1.8-9.8-3.5-14.6-5.3c-10.6-4.1-20.8-9-30.6-14.8
	c-5.7-3.4-8.3-8.8-6.3-14.9c9.1-27.8,22-53.5,43-74.4C116.2,12.4,133.7,3,154.6,0.7c0.5-0.1,1-0.1,1.1-0.7c7,0,14,0,21,0
	c0.3,0.2,0.5,0.6,0.8,0.6c22.3,2,42.9,9.4,62.8,19.2c2.1,1,3.8,1.2,5.9,0.2c17-7.6,34.6-13.3,52.7-17.3c3.5-0.8,7.4-0.6,10.6-2.8
	c2.3,0,4.5,0,6.8,0c2.1,0.8,4.4,1.4,6.4,2.5c8.1,4.2,12.7,11.3,15.9,19.5c1.3,3.3,0.8,5.9-1.4,8.7c-8.7,10.8-16.3,22.3-23.4,34.3
	c-23,38.8-39.1,80-43.8,125.3c-0.3,2.8,0,4.1,3.1,4.8c38.9,9.3,68.1,43,72.3,83.2c4.9,47.6-26.2,91.6-72.9,103
	c-4.6,1.1-9.3,1.9-14,2.9C252,384,245.5,384,239,384z M119.3,170c-0.4-0.1-0.7-0.3-1.1-0.4c-10.7-3.4-21.5-3.8-32.6-2.5
	c-38.1,4.4-69.2,36.6-72.3,74.7c-3.2,39.2,19.6,74.2,56.9,86.7c16.9,5.7,34,6.1,51-0.1c0.4,0,0.8,0.1,1.1,0
	c12.3-4.1,23-10.7,32.2-19.8c1.2-1.2,1.1-2.3,0.8-3.7c-1.2-6.1-1.8-12.4-1.6-18.6c0.7-21.3,7.3-40.6,20.5-57.4
	c1.4-1.7,1.5-3.1,0.8-5c-4.8-14.4-12.8-26.8-24.2-36.8c-8.9-7.8-18.8-13.9-30.5-16.7C120.1,170.2,119.7,170.1,119.3,170z M275,366.9
	c0.6-0.1,1.3-0.1,1.8-0.3c29.8-9.2,54.1-40.6,55.9-71.8c1.3-23.7-5.3-44.7-21.2-62.4c-10.2-11.4-22.6-19.5-37.4-23.7
	c-2-0.6-4-1.3-6-1.8c-11.6-2.8-23.3-2.8-34.9-0.5c-35,7.1-61.2,34.9-66,71.2c-4.7,36.5,14.2,68.6,43.7,83.9
	C231.5,372.2,252.9,374.4,275,366.9z M235.2,32.1c-0.8-0.7-1-1-1.3-1.2c-20.9-10.8-43.1-17.2-66.6-18c-21.8-0.8-40.6,7.3-56.1,22.4
	c-19.3,18.9-31.1,42.2-39.8,67.4c-0.7,2,0,2.9,1.7,3.8c7.2,4.1,14.5,7.8,22.1,10.9c20.2,8.3,40.9,14.1,63.2,12.4
	c20.6-1.6,37.4-10.8,51.3-25.5c15.2-16.1,25.5-35.3,33.5-55.8c1.2-3.2,0.4-3.7-2.7-3.6c-13.4,0.2-26.6,2-39.7,4.6
	c-24.9,5-48.5,13.5-69.5,28.2c-2.3,1.6-4.6,3.4-7.1,4.8c-2.8,1.6-5.3,0.6-7.3-1.7c-2.1-2.4-2.3-5-0.3-7.5c1.1-1.3,2.5-2.5,3.9-3.5
	c14.6-11,30.8-18.9,48-24.8C189.9,37.5,212,33.8,235.2,32.1z M186.1,216c0.5-0.2,0.8-0.3,1-0.4c12.4-10.7,26.6-17.9,42.7-21.3
	c2.2-0.5,2.3-1.8,2.5-3.5c1.6-17.3,4.3-34.4,8.3-51.3c6.9-29.5,17.2-57.7,33.1-83.7c0.9-1.5,1.8-3,3.2-5.2
	c-8.2,2.8-15.4,5.9-22.5,9.2c-1.8,0.8-2.9,2-3.7,3.9c-5.1,11.7-11.2,22.8-18.6,33.2c-19,26.9-43.3,45-77.6,46.1
	c-1.4,0-2.3,0.5-3.1,1.6c-3.9,5.6-7.8,11.3-11.8,16.9c-1.2,1.7-0.8,2.4,0.9,3.3C162.1,176.1,177.1,193.3,186.1,216z M258.5,44
	c11.3-4.7,22-8.4,33-11.4c3.5-0.9,6.5-0.7,8.5,2.7c1.9,3.2,0.7,5.9-1.6,8.5c-4.3,4.7-8,9.9-11.4,15.3
	c-24.2,38.2-35.7,80.7-41.3,125.1c-0.3,2.5-1.4,5.7-0.3,7.2c1.4,1.9,4.9,0.2,7.4,0.7c3.6,0.8,4.5-1.2,4.7-4.2
	c0.4-6.7,1.4-13.4,2.6-20c9.6-51.3,31.3-97.1,62-138.9c3.8-5.2,3.9-5.8-0.3-10.8c-3.2-3.9-6.9-6.1-12.4-4.6
	c-6.3,1.8-12.9,2.9-19.3,4.5c-10.5,2.7-20.8,6.1-30.8,10.3c-0.9,0.4-3.1,0.4-1.9,2.2C260.1,34.7,260,38.8,258.5,44z M125.4,140.4
	c-2.1-0.4-2.8,0.4-3.4,1.4c-1.4,2.1-2.9,4.1-4.1,6.2c-1.3,2.2-4.3,4.6-3.6,6.6c0.7,2.2,4.6,1.4,7,2.3c1,0.4,2.2,0.6,3.2,1
	c1.2,0.5,2.1,0.3,2.9-0.8c3-4.4,6-8.9,9-13.3c0.6-0.8,0.9-1.6-0.5-1.9C132,141.3,128.3,140.8,125.4,140.4z"/>
<path class="st1" d="M275,366.9c-22.1,7.6-43.6,5.3-64.1-5.4c-29.4-15.3-48.4-47.4-43.7-83.9c4.7-36.3,31-64.1,66-71.2
	c11.6-2.4,23.3-2.3,34.9,0.5c2,0.5,4,1.2,6,1.8c0.1,1.2,0.9,1.6,1.8,2.2c9.3,5.3,17.2,12.2,23.9,20.6c16.6,20.8,23.3,44.5,19.1,70.6
	c-4.3,26.9-18.6,47.9-41.9,62.5C276.2,365.1,274.9,365.4,275,366.9z M247.6,217.5c-2.1,0.2-4.2,0.4-6.3,0.7
	c-25.7,3.7-44.2,17.3-55.5,40.6c-1.8,3.7-0.5,7.3,2.9,8.9c3.3,1.5,6.4,0.3,8.5-3.2c1.5-2.6,2.7-5.4,4.4-7.8
	c11.3-16.7,27.1-25.4,47.1-26.3c3.7-0.2,6.4-1.4,7.3-5.1C257.2,220.9,253.4,217.5,247.6,217.5z M192.2,288c0-3.5-3-6.4-6.4-6.4
	c-3.4,0.1-6.1,2.7-6.2,6.1c-0.1,3.6,2.7,6.5,6.2,6.5C189.2,294.4,192.1,291.5,192.2,288z"/>
<path class="st1" d="M121.2,328.5c-17,6.1-34.1,5.7-51,0.1c-37.3-12.5-60.1-47.5-56.9-86.7c3.1-38.1,34.3-70.3,72.3-74.7
	c11-1.3,21.9-0.9,32.6,2.5c0.4,0.1,0.7,0.3,1.1,0.4c0.4,0.1,0.7,0.2,1.1,0.4c0.1,0.7,0.4,1.1,1,1.5c8.7,5,16.3,11.3,22.9,18.9
	c9.1,10.4,15.5,22.2,19,35.6c0.4,1.5,0.2,2.5-0.9,3.6c-5.2,5.6-9.3,12.1-12.5,18.9c-8.8,18.5-11.3,37.9-6.9,58.1
	c0.3,1.5,0.5,2.7-0.8,4c-3.7,3.5-7.3,7.1-11.4,10.2C127.7,323.7,123.6,325,121.2,328.5z M102.5,185.8c0.1-4-2.7-6.7-7.4-6.5
	c-28.6,1.3-49.4,14.7-62.4,40.2c-2.2,4.3-1.3,8,2.1,9.7c3.6,1.9,7.1,0.4,9.3-4.1c1.9-3.9,4.1-7.7,6.9-11.1
	c11.4-14,26.1-21.3,44.1-22C99.7,191.8,102.4,189.6,102.5,185.8z M38.6,249.4c-0.1-3.4-3.3-6.4-6.6-6.2c-3.5,0.2-6.2,3.2-6,6.7
	c0.2,3.5,2.8,6,6.3,5.9C35.8,255.8,38.7,252.9,38.6,249.4z"/>
<path class="st2" d="M235.2,32.1c-23.2,1.7-45.4,5.5-66.8,12.9c-17.2,6-33.4,13.9-48,24.8c-1.4,1-2.8,2.2-3.9,3.5
	c-2,2.5-1.8,5.1,0.3,7.5c2,2.3,4.5,3.3,7.3,1.7c2.5-1.4,4.8-3.1,7.1-4.8c21-14.7,44.6-23.2,69.5-28.2c13.1-2.6,26.3-4.4,39.7-4.6
	c3.1-0.1,3.9,0.5,2.7,3.6c-8,20.5-18.3,39.7-33.5,55.8c-13.9,14.7-30.7,23.9-51.3,25.5c-22.3,1.7-43-4.1-63.2-12.4
	c-7.6-3.1-15-6.8-22.1-10.9c-1.7-0.9-2.4-1.8-1.7-3.8c8.8-25.1,20.5-48.5,39.8-67.4c15.5-15.2,34.3-23.2,56.1-22.4
	c23.5,0.8,45.7,7.2,66.6,18C234.2,31,234.4,31.4,235.2,32.1z"/>
<path class="st3" d="M258.5,44c1.4-5.1,1.5-9.3-1.1-13.3c-1.2-1.8,1-1.8,1.9-2.2c10-4.2,20.3-7.6,30.8-10.3
	c6.4-1.7,12.9-2.7,19.3-4.5c5.5-1.5,9.2,0.7,12.4,4.6c4.1,5,4.1,5.6,0.3,10.8c-30.7,41.8-52.4,87.7-62,138.9
	c-1.2,6.6-2.3,13.3-2.6,20c-0.2,3-1,5-4.7,4.2c-2.5-0.5-6,1.2-7.4-0.7c-1.1-1.5,0-4.8,0.3-7.2c5.6-44.4,17-86.9,41.3-125.1
	c3.4-5.4,7.1-10.6,11.4-15.3c2.3-2.5,3.5-5.2,1.6-8.5c-2-3.3-5.1-3.6-8.5-2.7C280.6,35.6,269.9,39.3,258.5,44z"/>
<path class="st4" d="M275,366.9c-0.2-1.5,1.1-1.8,2-2.3C300.4,350,314.6,329,319,302c4.2-26.1-2.4-49.8-19.1-70.6
	c-6.7-8.4-14.6-15.3-23.9-20.6c-0.9-0.5-1.7-1-1.8-2.2c14.8,4.1,27.2,12.3,37.4,23.7c15.9,17.8,22.5,38.7,21.2,62.4
	c-1.7,31.2-26,62.6-55.9,71.8C276.3,366.8,275.7,366.8,275,366.9z"/>
<path class="st4" d="M121.2,328.5c2.4-3.5,6.5-4.8,9.6-7.3c4.1-3.2,7.7-6.7,11.4-10.2c1.4-1.3,1.1-2.5,0.8-4
	c-4.4-20.1-1.9-39.6,6.9-58.1c3.3-6.8,7.3-13.3,12.5-18.9c1.1-1.1,1.3-2.1,0.9-3.6c-3.5-13.4-9.9-25.2-19-35.6
	c-6.6-7.5-14.2-13.9-22.9-18.9c-0.6-0.3-0.9-0.8-1-1.5c11.7,2.8,21.6,9,30.5,16.7c11.4,10,19.4,22.3,24.2,36.8
	c0.6,1.9,0.5,3.3-0.8,5c-13.2,16.8-19.9,36.1-20.5,57.4c-0.2,6.2,0.4,12.5,1.6,18.6c0.3,1.4,0.4,2.5-0.8,3.7
	c-9.2,9.2-19.9,15.8-32.2,19.8C122,328.6,121.6,328.5,121.2,328.5z"/>
<path class="st3" d="M125.4,140.4c2.9,0.4,6.6,1,10.3,1.5c1.4,0.2,1.1,1,0.5,1.9c-3,4.4-6,8.9-9,13.3c-0.8,1.1-1.7,1.3-2.9,0.8
	c-1-0.4-2.1-0.6-3.2-1c-2.4-0.9-6.2-0.1-7-2.3c-0.7-2,2.3-4.4,3.6-6.6c1.3-2.1,2.8-4.1,4.1-6.2C122.6,140.8,123.3,139.9,125.4,140.4
	z"/>
<path class="st4" d="M119.3,170c-0.4-0.1-0.7-0.3-1.1-0.4C118.6,169.7,119,169.9,119.3,170z"/>
<path class="st5" d="M247.6,217.5c5.8,0,9.6,3.3,8.4,7.8c-1,3.7-3.6,4.9-7.3,5.1c-20,0.9-35.9,9.6-47.1,26.3
	c-1.7,2.5-2.9,5.2-4.4,7.8c-2,3.6-5.2,4.8-8.5,3.2c-3.4-1.6-4.7-5.2-2.9-8.9c11.3-23.3,29.8-36.9,55.5-40.6
	C243.4,217.9,245.5,217.8,247.6,217.5z"/>
<path class="st5" d="M192.2,288c0,3.5-3,6.4-6.5,6.3c-3.5-0.1-6.3-3-6.2-6.5c0.1-3.4,2.8-6.1,6.2-6.1
	C189.2,281.6,192.2,284.6,192.2,288z"/>
<path class="st5" d="M102.5,185.8c-0.1,3.8-2.8,6-7.4,6.2c-18,0.7-32.7,8-44.1,22c-2.8,3.4-5,7.2-6.9,11.1c-2.2,4.5-5.7,6-9.3,4.1
	c-3.4-1.8-4.3-5.5-2.1-9.7c13-25.5,33.9-38.9,62.4-40.2C99.8,179.1,102.6,181.8,102.5,185.8z"/>
<path class="st5" d="M38.6,249.4c0.1,3.5-2.8,6.4-6.3,6.4c-3.5,0-6.2-2.5-6.3-5.9c-0.2-3.6,2.5-6.6,6-6.7
	C35.3,243,38.5,246,38.6,249.4z"/>
</svg>
