<?xml version="1.0" encoding="utf-8"?>
<!-- Generator: Adobe Illustrator 19.0.0, SVG Export Plug-In . SVG Version: 6.00 Build 0)  -->
<svg version="1.1" id="Warstwa_1" xmlns="http://www.w3.org/2000/svg" xmlns:xlink="http://www.w3.org/1999/xlink" x="0px" y="0px"
	 viewBox="0 0 409.3 323.2" style="enable-background:new 0 0 409.3 323.2;" xml:space="preserve">
<style type="text/css">
	.st0{fill:#00A9EF;}
	.st1{fill:#00C2FE;}
	.st2{fill:#86D9FE;}
	.st3{fill:#0095DB;}
	.st4{fill:#A4E8FE;}
</style>
<path class="st0" d="M0.7,85.7c-0.3,0-0.5,0-0.8,0c0-0.5,0-1.1,0-1.6c1.5-0.5,2.3-1.8,3.3-2.8C29.1,55.4,55,29.4,81,3.5
	c0.9-0.9,2-1.8,2.9-2.7c2.4-0.2,2.8,1.8,3.3,3.3c6.4,17.2,12.8,34.4,19.1,51.6c3.1,8.4,6.4,16.6,9.2,25.1c0.5,1.6,1.9,3.5-0.7,4.8
	c-2.2,0.7-4.5,0.5-6.8,0.5c-34,0-67.9,0-101.9,0C4.4,86.2,2.5,86.1,0.7,85.7z"/>
<path class="st1" d="M115.9,84.9c-7.4-20.2-14.9-40.5-22.3-60.7c-2.4-6.5-4.8-12.9-7.1-19.4c-0.5-1.5-0.9-3.1-2.5-3.9
	c0.7-1.2,1.9-0.8,2.9-0.8c39,0,78,0,117.1,0c0.4,1.9-1,2.9-2.1,4c-16.6,16.4-33.7,32.2-50.5,48.4c-9.6,9.2-19.4,18.2-28.8,27.7
	c-1.2,1.2-2.3,2.6-4.3,3.6c57.8,0,115.2,0,172.8,0c-1.6-1-2.8-2.3-4.1-3.6c-9.1-9.3-18.8-18.1-28.2-27.2C242,37,225.1,21.2,208.5,5
	c-1.4-1.3-3.3-2.4-3-4.8c39.7,0,79.3,0,119,0.1c0.8,1.8-0.2,3.4-0.7,4.9c-9.7,26.7-19.9,53.2-29.4,80
	c-14.3,38.6-28.6,77.2-42.8,115.8c-14.2,38.5-28.5,76.9-42.6,115.5c-1,2.6-2.2,5.1-3.6,7.5c-1.1,1-1.6,0.2-2.1-0.7
	c-10.8-27-20.3-54.4-30.5-81.5c-10.6-28.3-21-56.7-31.4-85.1c-8.4-22.6-16.7-45.2-25.1-67.9C115.8,87.5,115.2,86.2,115.9,84.9z"/>
<path class="st2" d="M205.4,324c2.5-9.1,6.3-17.8,9.5-26.6c13.4-36.4,26.8-72.9,40.3-109.3c12.7-34.4,25.5-68.8,38.3-103.2
	c1.5-1.4,3.4-1.3,5.3-1.3c35.3,0,70.6,0,106,0c1.3,0,2.6,0.3,4,0.5c0.9,0.6,0.7,1.2,0.1,2c-7.7,9-15.3,18-23,27
	c-10.3,12.1-20.7,24.3-31,36.4c-9.8,11.5-19.7,23-29.5,34.5c-10.3,12-20.4,24.1-30.7,36.1c-10.1,11.8-20.3,23.6-30.4,35.4
	c-11.5,13.4-22.8,27-34.3,40.4C221.8,305.2,213.6,314.6,205.4,324z"/>
<path class="st3" d="M115.9,84.9c7.3,19.5,14.5,39.1,21.8,58.6c11.5,31.1,23.1,62.3,34.6,93.4c8.5,23,17,46.1,25.5,69.2
	c1.7,4.5,3.4,8.9,5,13.4c0.4,1.1,1.5,2.3,0.6,3.7c-16.9-19.7-33.8-39.4-50.6-59.1c-35-41-70-82-105-123.1
	c-15.7-18.4-31.4-36.9-47-55.4c1.2-1.3,2.7-0.8,4.1-0.8C41.8,84.9,78.8,84.9,115.9,84.9z"/>
<path class="st2" d="M205.5,0.1c4.4,5.6,9.8,10.1,14.8,15c6.7,6.6,13.8,12.9,20.6,19.5c16.7,16,33.4,32.1,50.1,48.2
	c0.5,0.4,0.8,1,1.5,1.8c-58.7,0-117,0-175.4,0c0.3-1.7,1.8-2.5,2.8-3.5c27-25.9,54-51.8,81-77.7c1-1,2.4-1.8,2.8-3.3
	C204.4,0.1,205,0.1,205.5,0.1z"/>
<path class="st4" d="M408.7,84c-1.3,1.5-3,0.8-4.5,0.8c-36.9,0-73.8,0-110.7,0c6-16.5,12.1-33.1,18.1-49.6
	c4.3-11.7,8.6-23.4,12.9-35.1c1.2,0.1,1.8,1.1,2.5,1.8c26.7,26.7,53.5,53.4,80.2,80.2C407.8,82.7,408.2,83.4,408.7,84z"/>
</svg>
