<?xml version="1.0" encoding="utf-8"?>
<!-- Generator: Adobe Illustrator 19.0.0, SVG Export Plug-In . SVG Version: 6.00 Build 0)  -->
<svg version="1.1" id="Warstwa_1" xmlns="http://www.w3.org/2000/svg" xmlns:xlink="http://www.w3.org/1999/xlink" x="0px" y="0px"
	 viewBox="0 0 383.4 480" style="enable-background:new 0 0 383.4 480;" xml:space="preserve">
<style type="text/css">
	.st0{fill:#030302;}
	.st1{fill:#F88400;}
	.st2{fill:#F07800;}
	.st3{fill:#5E933A;}
	.st4{fill:#558640;}
</style>
<path class="st0" d="M199.6,0c0.2,7.9-0.8,15.9,0.8,23.8c1.3,6.1,4.2,11.3,8,16.1c1.6,2,3.3,2.3,5.7,1.9
	C283,30,352.5,77.1,367.2,145.5c1.4,6.3-0.9,9.8-7.2,11.2c-8.2,1.8-16.5,2.7-25.8,2.8c2.5,3.1,4.7,5.7,6.8,8.3
	c87.8,110.4,33,274.1-106.2,307.1C131.5,499.3,28.6,434,4.8,330.6c-23.3-101.5,40.1-204.4,141.2-229c11.1-2.7,22.3-4.6,33.7-5
	c2.4-0.1,3.6-0.6,3.6-3.4c-0.1-30.5-0.1-60.9-0.1-91.4c0-0.6-0.3-1.2-0.5-1.7C188.3,0,194,0,199.6,0z M241.5,101.4
	c0.7,1,1.4,2.1,2.2,3c15.3,16.4,33.6,28.1,55.2,34.4c15.6,4.6,31.4,6,47.6,4c2.2-0.3,3.4-0.4,2.4-3.3c-4.7-14-11.1-27-20.8-38.3
	c-16.2-20.8-37.4-34.1-62.6-41C250.6,56,235.4,55,220.1,57c-1.8,0.2-2.9,0.3-2.1,2.7C223.1,75.2,230.5,89.3,241.5,101.4z
	 M97.3,436.2c0.3,0.3,0.7,0.7,1.1,0.9c43.2,26,89.3,33.6,138.1,20.5c100.7-27.1,155.2-132.4,119.8-230.4
	c-8.2-22.7-20.5-43-37.6-60.2c-3.9-4.1-7-8.9-13.4-10.2c-26.7-5.4-49.7-18-69-37.2c-1.1-1.1-2.1-2.2-3.8-2.6
	c-9.9-2.4-19.9-3.9-30-4.5c-2.3-0.1-3,0.6-2.9,2.8c0.1,5,0.2,10,0,15c-0.1,3.2,0.5,4.1,3.8,2.9c2.7-1,5.4-4.3,7.8-2.9
	c2.4,1.3,3.7,4.9,5.4,7.4c0.4,0.5,0.6,1.1,1,1.6c2.3,2.5,1.8,4-1.2,5.5c-14.7,7.7-29.8,8.6-45.1,2.3c-8.9-3.6-8.8-3.7-3.7-11.4
	c3.9-5.9,3.9-5.9,10.3-3.3c0.9,0.4,1.8,0.6,2.6,1c2.1,1,2.8,0.1,2.8-2c-0.1-5.2-0.2-10.3,0-15.5c0.1-3-0.9-3.7-3.8-3.5
	c-9.5,0.7-18.9,2-28.2,4.2C44.1,142.4-13.4,256.2,29.9,357.4C44.1,390.6,66.5,417.1,97.3,436.2z M218.3,97.7
	c-8.5-13.5-14.4-27.3-18.5-42.1c-0.3,12.7-0.3,25.3-0.3,37.9c0,1.4-0.3,2.8,1.9,3C206.8,96.8,212.1,97.2,218.3,97.7z"/>
<path class="st1" d="M97.3,436.2c-30.8-19.1-53.2-45.6-67.4-78.8c-43.3-101.2,14.2-215,121.5-240.8c9.3-2.2,18.7-3.5,28.2-4.2
	c2.8-0.2,3.9,0.6,3.8,3.5c-0.2,5.1-0.1,10.3,0,15.5c0,2.1-0.7,2.9-2.8,2c-0.8-0.4-1.8-0.6-2.6-1c-6.4-2.6-6.4-2.6-10.3,3.3
	c-5.2,7.7-5.2,7.8,3.7,11.4c15.4,6.2,30.4,5.4,45.1-2.3c3-1.6,3.5-3.1,1.2-5.5c-0.4-0.5-0.7-1-1-1.6c-1.8-2.6-3-6.1-5.4-7.4
	c-2.4-1.4-5.1,1.9-7.8,2.9c-3.3,1.2-3.9,0.3-3.8-2.9c0.2-5,0.1-10,0-15c-0.1-2.3,0.7-3,2.9-2.8c10.1,0.7,20.2,2.2,30,4.5
	c1.7,0.4,2.7,1.5,3.8,2.6c19.3,19.2,42.3,31.8,69,37.2c6.3,1.3,9.5,6.1,13.4,10.2c0,1.1,0.2,2.2-0.1,3.3
	c-3.5,14.8-6.9,29.7-11.5,44.2c-7.8,24.3-17.8,47.5-30.1,69.8c-12.9,23.4-28.9,44.6-46.8,64.3c-11.6,12.7-24.5,23.9-38.1,34.4
	c-24.9,19.3-52.1,34.5-81.1,46.7C106.3,431.7,100.9,432.2,97.3,436.2z M32.5,268.8c-0.5,1.8,0.9,2.5,3.1,2.7c3.1,0.3,6.2,0.5,9.3,1
	c2.6,0.4,3.4-0.4,3.8-3.1c2.9-22.5,10.9-43,23.5-61.8c2.1-3.2,6.8-6.1,5.8-9.4c-0.9-3.1-5.7-5-8.5-7.6c-2.2-2.1-3.4-1.6-5.1,0.6
	c-9.9,13.1-17.8,27.4-23.5,42.8C36.9,245.1,34.2,256.4,32.5,268.8z M295.3,199.8c-8,0-8,0-8,8.2c0,8,0,8,8.2,8c8,0,8,0,8-8.2
	C303.5,199.8,303.5,199.8,295.3,199.8z M100.2,176.8c-0.4-0.5-0.6-0.9-0.9-1.3c-6.9-12-8.3-12.2-18.3-2.6c-0.7,0.6-1.3,1.3-2,1.9
	c-1.3,1.1-1.1,2,0.1,3c3.4,3,5.8,7.9,9.9,8.6c2.3,0.4,5.5-4.3,8.3-6.7c0.6-0.5,1.2-1,1.8-1.5C99.5,177.8,99.9,177.3,100.2,176.8z"/>
<path class="st2" d="M97.3,436.2c3.7-4,9-4.5,13.6-6.5c29-12.2,56.2-27.4,81.1-46.7c13.6-10.5,26.5-21.8,38.1-34.4
	c18-19.7,33.9-40.9,46.8-64.3c12.3-22.3,22.3-45.6,30.1-69.8c4.7-14.5,8-29.4,11.5-44.2c0.2-1,0.1-2.2,0.1-3.3
	c17,17.3,29.4,37.5,37.6,60.2c35.4,98-19.1,203.3-119.8,230.4c-48.7,13.1-94.9,5.5-138.1-20.5C98,436.9,97.6,436.5,97.3,436.2z
	 M303.5,376c0-8.2,0-8.2-8.1-8.2c-8.1,0-8.1,0-8.1,8.1c0,8.1,0,8.1,8.1,8.1C303.5,384.1,303.5,384.1,303.5,376z M335.4,256.1
	c0-8.2,0-8.2-7.4-8.2c-8.6,0-8.6,0-8.6,8.4c0,7.8,0,7.8,7.9,7.8C335.4,264.1,335.4,264.1,335.4,256.1z M247.5,359.9
	c-8.3,0-8.3,0-8.3,7.4c0,8.6,0,8.6,8.4,8.6c7.8,0,7.8,0,7.8-7.9C255.5,359.9,255.5,359.9,247.5,359.9z M223.2,423.9
	c8.2,0,8.2,0,8.2-8c0-0.2,0-0.3,0-0.5c0-7.6,0-7.6-7.6-7.6c-8.4,0-8.4,0-8.4,8.2C215.4,423.9,215.4,423.9,223.2,423.9z"/>
<path class="st3" d="M241.5,101.4c-11-12.1-18.4-26.2-23.4-41.6c-0.8-2.4,0.3-2.5,2.1-2.7c15.3-2,30.5-1,45.4,3.1
	c25.2,6.9,46.4,20.2,62.6,41c-0.7,0.4-1.3,0.9-2,1c-7.7,1.6-15.6,2.2-23.4,3.2c-12.3,1.5-24.4,0-36.6-0.9
	C257.9,103.8,249.7,102.4,241.5,101.4z"/>
<path class="st4" d="M241.5,101.4c8.2,1.1,16.5,2.5,24.7,3.1c12.2,0.9,24.3,2.4,36.6,0.9c7.8-1,15.7-1.5,23.4-3.2
	c0.7-0.1,1.3-0.7,2-1c9.7,11.3,16.1,24.3,20.8,38.3c0.9,2.8-0.2,3-2.4,3.3c-16.1,2-32,0.6-47.6-4c-21.6-6.3-39.9-17.9-55.2-34.4
	C242.8,103.5,242.2,102.4,241.5,101.4z"/>
<path class="st0" d="M32.5,268.8c1.7-12.4,4.4-23.7,8.4-34.7c5.6-15.5,13.5-29.7,23.5-42.8c1.7-2.2,2.9-2.7,5.1-0.6
	c2.8,2.7,7.6,4.5,8.5,7.6c1,3.3-3.6,6.3-5.8,9.4c-12.6,18.8-20.6,39.4-23.5,61.8c-0.3,2.7-1.2,3.5-3.8,3.1c-3.1-0.5-6.2-0.7-9.3-1
	C33.5,271.3,32,270.7,32.5,268.8z"/>
<path class="st0" d="M295.3,199.8c8.2,0,8.2,0,8.2,8c0,8.2,0,8.2-8,8.2c-8.2,0-8.2,0-8.2-8C287.3,199.8,287.3,199.8,295.3,199.8z"/>
<path class="st0" d="M100.2,176.8c-0.4,0.4-0.7,1-1.1,1.4c-0.5,0.5-1.2,1-1.8,1.5c-2.8,2.4-6,7.1-8.3,6.7c-4.1-0.7-6.6-5.7-9.9-8.6
	c-1.2-1-1.4-1.9-0.1-3c0.7-0.6,1.4-1.3,2-1.9c10-9.6,11.3-9.4,18.3,2.6C99.6,175.9,99.9,176.3,100.2,176.8z"/>
<path class="st0" d="M303.5,376c0,8.1,0,8.1-8.1,8.1c-8.1,0-8.1,0-8.1-8.1c0-8.1,0-8.1,8.1-8.1C303.5,367.9,303.5,367.9,303.5,376z"
	/>
<path class="st0" d="M335.4,256.1c0,8,0,8-8.1,8c-7.9,0-7.9,0-7.9-7.8c0-8.4,0-8.4,8.6-8.4C335.4,247.9,335.4,247.9,335.4,256.1z"/>
<path class="st0" d="M247.5,359.9c8,0,8,0,8,8.1c0,7.9,0,7.9-7.8,7.9c-8.4,0-8.4,0-8.4-8.6C239.2,359.9,239.2,359.9,247.5,359.9z"/>
<path class="st0" d="M223.2,423.9c-7.8,0-7.8,0-7.8-7.8c0-8.2,0-8.2,8.4-8.2c7.6,0,7.6,0,7.6,7.6c0,0.2,0,0.3,0,0.5
	C231.4,423.9,231.4,423.9,223.2,423.9z"/>
</svg>
