<?xml version="1.0" encoding="utf-8"?>
<!-- Generator: Adobe Illustrator 19.0.0, SVG Export Plug-In . SVG Version: 6.00 Build 0)  -->
<svg version="1.1" id="Warstwa_1" xmlns="http://www.w3.org/2000/svg" xmlns:xlink="http://www.w3.org/1999/xlink" x="0px" y="0px"
	 viewBox="0 0 261 384" style="enable-background:new 0 0 261 384;" xml:space="preserve">
<style type="text/css">
	.st0{fill:#606060;}
	.st1{fill:#673AB6;}
	.st2{fill:#60A817;}
	.st3{fill:#45279F;}
	.st4{fill:#549314;}
</style>
<path d="M222.8,0.6c11.3,0.6,22.2,2.9,33,6.1c3.2,1,5.2,3,5.1,6.5c-0.3,21.1-4.1,41.4-14.1,60.2c-6.6,12.3-15.9,22-28.8,28.2
	c7,7.6,12.8,15.8,17.6,24.8c9.7,18.3,15,38,17.8,58.3c3.1,22.8,3.7,45.6,0.8,68.4c-5.6,44-23.7,81.2-60.9,107.2
	c-17.5,12.2-36.8,20.3-58.2,23c-0.3,0-0.6,0.4-0.9,0.6c-4.5,0-9,0-13.5,0c-5.5-1.3-11.1-2.3-16.5-4c-49.9-15.4-81.9-48.6-96.6-98.5
	c-7-23.7-8.4-48.1-7.2-72.7c1-20.3,3.6-40.2,10.1-59.5c8.3-24.6,21.6-45.6,44.7-58.8c21.2-12.1,43.9-16.6,68.1-11.7
	c3.1,0.6,6.1,1.9,9.5,3c-0.8-6.8-2.5-13.1-4.6-19.3c-7.4-21.7-20-39.2-40.7-50C81.6,9.4,81.8,4.1,87.7,0c1.3,0,2.5,0,3.8,0
	C99,2.2,105,6.9,110.7,11.8c12.9,11,22.3,24.4,28.4,40.2c0.3,0.7,0.4,1.4,0.5,2.1c4.2-15.2,12.1-28.2,23.9-38.7
	c12-10.7,26.3-15.2,42.3-15.1C211.5,0.5,217.2,0.1,222.8,0.6z"/>
<path class="st0" d="M204.6,0.6c0.1-0.2,0.1-0.4,0.1-0.6c6,0,12,0,18,0c0,0.2,0,0.4,0.1,0.6C216.8,0.6,210.7,0.6,204.6,0.6z"/>
<path class="st1" d="M153,366.1c-14,5.7-28.3,6.6-42.8,2.4c-45.3-12.9-74.6-42.3-89-86.7c-7.6-23.4-9.2-47.6-7.9-72.2
	c0.9-18.1,3.1-36,8.5-53.4c6.1-19.6,15.7-37,32.3-49.7C69,95.1,86.1,90.4,104.7,89.7c13.6-0.5,25.5,3.5,36,12
	c12.6,10.2,20.6,23.6,26.4,38.5c7.1,18.2,10.2,37.2,11.4,56.6c0.4,6.9,0.7,13.7,0.8,20.6c0,3.8,2.8,6.6,6.3,6.6
	c3.4,0,6.4-2.7,6.4-6.5c0-29.9-3.2-59.3-15.1-87.1c-5.7-13.3-13.4-25.4-24.2-35.3c-0.6-0.6-1.4-1-1.5-2.3c8.2-2.6,16.5-4,25.1-1.4
	c10.5,4.6,18.1,12.6,24.9,21.5c12.2,15.7,19.3,33.7,24,52.8c5.7,23.5,7.1,47.4,5.9,71.4c-1.3,26.3-7.2,51.7-20.4,74.9
	c-12.4,21.7-29.2,39.2-51.3,51.2C157.3,364.3,155.1,365,153,366.1z"/>
<path class="st2" d="M204.7,90c-6.2-4-12.6-7.7-19.8-9.6c-2.9-0.8-1.2-2.2-0.7-3.3c5.6-11.6,13.6-21.2,23.9-28.9
	c1.7-1.3,3.5-2.4,5.2-3.6c4.2-2.8,5.4-6.4,3.2-9.7c-2.2-3.3-6-3.6-10.2-0.9c-15.4,9.9-27.1,23.2-34.6,39.9c-1.2,2.7-2.6,3.7-5.6,3.5
	c-5.9-0.3-11.6,1-17.7,2.7c0.7-6.8,2-13.1,3.8-19.3c3.8-13.3,9.4-25.6,20-34.9c8.9-7.8,19.7-11.1,31.2-12.3
	c10.7-1.2,21.4-0.4,32,1.6c1,1,1.1,2.2,1,3.5c-1.2,14.9-3.4,29.5-9.2,43.4c-4,9.5-9,18.4-16.7,25.5C208.9,88.9,207.4,91,204.7,90z"
	/>
<path class="st3" d="M153,366.1c5.7-4,12-7,17.7-11.1c22-15.5,37.3-36,47.3-60.7c5.8-14.2,8.9-29.1,10.9-44.4
	c1.8-13.9,1.9-27.9,1.2-41.8c-1.2-23.4-5-46.5-14.3-68.2c-6.1-14.1-14-27-25.3-37.6c-4.4-4.1-9.5-7.2-14.2-10.9
	c8.5,0.9,15.6,5.2,22.2,10.1c14.7,10.9,24.4,25.5,31.3,42.2c7.5,18.4,11.1,37.7,12.6,57.5c0.9,11.2,1.1,22.5,0.6,33.7
	c-1.5,33.1-9.7,64.1-30.7,90.6c-14.5,18.4-33,31.4-54.9,39.5C155.9,365.5,154.5,366.3,153,366.1z"/>
<path class="st4" d="M204.7,90c4.3-1.4,6.9-4.8,9.6-8c8.9-10.9,14.1-23.6,17.3-37.1c2.3-9.8,3.5-19.7,3.8-29.7
	c3.5,0.7,7.1,1.4,10.6,2.1c1.5,0.3,2.1,1,2,2.6c-1.5,17.5-4.7,34.6-13.8,50c-5.7,9.6-13.4,17-24,21.1
	C208.1,91.9,206.3,92.1,204.7,90z"/>
</svg>
